<svg height="512" viewBox="0 0 512 512" width="512" xmlns="http://www.w3.org/2000/svg"><g><g><path d="m496 96v324a19.994 19.994 0 0 1 -20 20h-440a19.994 19.994 0 0 1 -20-20v-324z" fill="#e0e0e2"/><path d="m496 68v28h-480v-28a19.994 19.994 0 0 1 20-20h440a19.994 19.994 0 0 1 20 20z" fill="#d80027"/><g fill="#ffda44"><path d="m240 24h32v48h-32z"/><path d="m144 24h32v48h-32z"/><path d="m48 24h32v48h-32z"/><path d="m336 24h32v48h-32z"/><path d="m432 24h32v48h-32z"/></g><circle cx="256" cy="328" fill="#d80027" r="160"/><path d="m329.539 378.912-22.627 22.627-50.912-50.912-50.912 50.912-22.627-22.627 50.912-50.912-50.912-50.912 22.627-22.627 50.912 50.912 50.912-50.912 22.627 22.627-50.912 50.912z" fill="#e0e0e2"/></g><g><path d="m476 40h-4v-16a8 8 0 0 0 -8-8h-32a8 8 0 0 0 -8 8v16h-48v-16a8 8 0 0 0 -8-8h-32a8 8 0 0 0 -8 8v16h-48v-16a8 8 0 0 0 -8-8h-32a8 8 0 0 0 -8 8v16h-48v-16a8 8 0 0 0 -8-8h-32a8 8 0 0 0 -8 8v16h-48v-16a8 8 0 0 0 -8-8h-32a8 8 0 0 0 -8 8v16h-4a28.031 28.031 0 0 0 -28 28v352a28.031 28.031 0 0 0 28 28h102.55a167.693 167.693 0 0 0 234.9 0h102.55a28.031 28.031 0 0 0 28-28v-352a28.031 28.031 0 0 0 -28-28zm-36-8h16v32h-16zm-96 0h16v32h-16zm-96 0h16v32h-16zm-96 0h16v32h-16zm-96 0h16v32h-16zm200 448c-83.81 0-152-68.19-152-152s68.19-152 152-152 152 68.19 152 152-68.19 152-152 152zm232-60a12.01 12.01 0 0 1 -12 12h-88.15a167.227 167.227 0 0 0 36.15-104c0-92.64-75.36-168-168-168s-168 75.36-168 168a167.227 167.227 0 0 0 36.15 104h-88.15a12.01 12.01 0 0 1 -12-12v-316h464zm0-332h-464v-20a12.01 12.01 0 0 1 12-12h4v16a8 8 0 0 0 8 8h32a8 8 0 0 0 8-8v-16h48v16a8 8 0 0 0 8 8h32a8 8 0 0 0 8-8v-16h48v16a8 8 0 0 0 8 8h32a8 8 0 0 0 8-8v-16h48v16a8 8 0 0 0 8 8h32a8 8 0 0 0 8-8v-16h48v16a8 8 0 0 0 8 8h32a8 8 0 0 0 8-8v-16h4a12.01 12.01 0 0 1 12 12z"/><path d="m264 200a8 8 0 0 0 -8-8c-74.991 0-136 61.009-136 136a8 8 0 0 0 16 0 120.136 120.136 0 0 1 120-120 8 8 0 0 0 8-8z"/><path d="m335.2 271.432-22.632-22.632a8 8 0 0 0 -11.313 0l-45.255 45.259-45.255-45.259a8 8 0 0 0 -11.313 0l-22.632 22.632a8 8 0 0 0 0 11.313l45.259 45.255-45.259 45.255a8 8 0 0 0 0 11.313l22.632 22.632a8 8 0 0 0 11.313 0l45.255-45.259 45.255 45.259a8 8 0 0 0 11.313 0l22.632-22.632a8 8 0 0 0 0-11.313l-45.259-45.255 45.259-45.255a8 8 0 0 0 0-11.313zm-62.225 50.911a8 8 0 0 0 0 11.314l45.255 45.255-11.314 11.314-45.255-45.255a8 8 0 0 0 -11.314 0l-45.255 45.255-11.314-11.314 45.255-45.255a8 8 0 0 0 0-11.314l-45.255-45.255 11.314-11.314 45.255 45.255a8 8 0 0 0 11.314 0l45.255-45.255 11.314 11.314z"/></g></g></svg>