<?xml version="1.0" encoding="utf-8"?>
<!-- Generator: Adobe Illustrator 25.4.1, SVG Export Plug-In . SVG Version: 6.00 Build 0)  -->
<svg version="1.1" id="Ebene_1" xmlns="http://www.w3.org/2000/svg" xmlns:xlink="http://www.w3.org/1999/xlink" x="0px" y="0px"
	 viewBox="0 0 250 250" style="enable-background:new 0 0 250 250;" xml:space="preserve">
<style type="text/css">
	.st0{fill:#4E7A73;}
	.st1{fill:#FFFFFF;}
</style>
<g transform="translate(-266.43 -401.65)">
	<g>
		<g id="XMLID_00000027590273713404763300000007401059619968706211_">
			<g>
				<path class="st0" d="M515.4,402.6v248h-248v-248H515.4z M444.8,592.9c4.6-1.7,7.4-2.5,7.2-8c-0.2-7.1-1.1-14.3-2.3-21.3
					c-1.5-8.5-3.4-21-10.9-26.5c-4.3-3.2-9.9-4.3-14.8-6.2c-2.4-0.9-4.5-1.9-6.6-2.9c-6.8,7.4-15.6,11.3-26,11.3
					c-10.3,0-19.2-3.9-26-11.3c-2,1.1-4.2,2-6.5,2.9c-4.9,1.9-10.5,3-14.8,6.2c-7.4,5.6-9.4,18-10.9,26.5c-1.2,7-2.1,14.2-2.3,21.3
					c-0.2,5.5,2.5,6.3,7.2,8c5.8,2.1,11.8,3.6,17.8,4.9c11.6,2.5,23.6,4.3,35.5,4.4c11.9-0.1,23.9-2,35.5-4.4
					C433,596.5,439,595,444.8,592.9z M423.9,490.8c2.6-22.7-8.1-39.7-32.5-39.7c-24.4,0-35.1,17-32.5,39.7
					c2.1,18.4,10.1,40.8,32.5,40.8C413.8,531.6,421.8,509.2,423.9,490.8z"/>
				<path class="st1" d="M451.9,584.9c0.2,5.5-2.5,6.3-7.2,8c-5.8,2.1-11.8,3.6-17.8,4.9c-11.6,2.5-23.6,4.3-35.5,4.4
					c-11.9-0.1-23.9-2-35.5-4.4c-6-1.3-12-2.8-17.8-4.9c-4.6-1.7-7.4-2.5-7.2-8c0.2-7.1,1.1-14.3,2.3-21.3c1.5-8.5,3.4-21,10.9-26.5
					c4.3-3.2,9.9-4.3,14.8-6.2c2.4-0.9,4.5-1.9,6.5-2.9c6.8,7.4,15.7,11.3,26,11.3c10.3,0,19.2-3.9,26-11.3c2,1.1,4.2,2,6.6,2.9
					c4.9,1.9,10.5,3,14.8,6.2c7.4,5.6,9.4,18,10.9,26.5C450.8,570.6,451.7,577.8,451.9,584.9z"/>
				<path class="st1" d="M391.4,451.1c24.4,0,35.1,17,32.5,39.7c-2.1,18.4-10.2,40.8-32.5,40.8c-22.4,0-30.4-22.4-32.5-40.8
					C356.3,468.1,367,451.1,391.4,451.1z"/>
			</g>
			<g>
			</g>
		</g>
	</g>
</g>
</svg>
