<svg height="480pt" viewBox="0 0 480 480" width="480pt" xmlns="http://www.w3.org/2000/svg"><path d="m432 240c0 106.039062-85.960938 192-192 192s-192-85.960938-192-192 85.960938-192 192-192 192 85.960938 192 192zm0 0" fill="#cfd2fc"/><path d="m240 480c-132.546875 0-240-107.453125-240-240s107.453125-240 240-240 240 107.453125 240 240c-.148438 132.484375-107.515625 239.851562-240 240zm0-464c-123.710938 0-224 100.289062-224 224s100.289062 224 224 224 224-100.289062 224-224c-.140625-123.652344-100.347656-223.859375-224-224zm0 0" fill="#8690fa"/><g fill="#5153ff"><path d="m130.398438 224.953125c-.550782 0-1.105469-.058594-1.644532-.167969-4.328125-.90625-7.101562-5.148437-6.195312-9.472656 1.148437-5.476562 2.679687-10.867188 4.585937-16.128906.953125-2.714844 3.289063-4.710938 6.121094-5.226563 2.835937-.511719 5.726563.535157 7.570313 2.746094s2.359374 5.242187 1.347656 7.9375c-1.660156 4.550781-3 9.210937-4 13.953125-.773438 3.6875-4.015625 6.335938-7.785156 6.359375zm0 0"/><path d="m149.214844 182.398438c-3.003906-.003907-5.753906-1.691407-7.117188-4.367188-1.363281-2.679688-1.109375-5.894531.65625-8.328125 3.269532-4.511719 6.851563-8.785156 10.71875-12.800781 3.058594-3.1875 8.125-3.289063 11.3125-.230469s3.289063 8.125.230469 11.3125c-3.355469 3.496094-6.464844 7.21875-9.3125 11.144531-1.511719 2.066406-3.925781 3.28125-6.488281 3.269532zm0 0"/><path d="m183.742188 151.144531c-3.613282-.007812-6.773438-2.4375-7.710938-5.929687-.9375-3.492188.585938-7.175782 3.710938-8.992188 4.828124-2.804687 9.847656-5.273437 15.019531-7.382812 4.09375-1.664063 8.765625.304687 10.429687 4.398437 1.667969 4.097657-.304687 8.769531-4.398437 10.433594-4.476563 1.816406-8.816407 3.957031-12.984375 6.398437-1.234375.714844-2.636719 1.085938-4.066406 1.074219zm0 0"/><path d="m360 240v-.464844c0-.046875 0-.09375 0-.152344-.070312-10.925781-1.640625-21.792968-4.664062-32.292968-.046876-.210938 0-.410156-.054688-.617188-.144531-.511718-.34375-1.015625-.496094-1.527344-.152344-.511718-.386718-1.144531-.570312-1.722656-.96875-2.992187-2.054688-5.949218-3.253906-8.878906-.21875-.527344-.425782-1.0625-.648438-1.601562-.289062-.664063-.519531-1.34375-.800781-2-.140625-.21875-.292969-.429688-.457031-.628907-4.46875-9.796875-10.234376-18.945312-17.144532-27.203125-.09375-.125-.117187-.285156-.222656-.414062-3.617188-4.25-7.519531-8.246094-11.6875-11.960938-.257812-.167968-.523438-.324218-.800781-.464844-7.9375-6.996093-16.765625-12.914062-26.253907-17.597656-.214843-.191406-.441406-.363281-.679687-.519531-1.539063-.746094-3.121094-1.394531-4.699219-2.074219-.453125-.199218-.902344-.414062-1.367187-.605468-3.128907-1.304688-6.277344-2.519532-9.488281-3.546876-.085938 0-.167969 0-.253907 0-10.34375-3.257812-21.082031-5.097656-31.921875-5.460937-.246094 0-.457031-.160156-.703125-.167969-.800781 0-1.65625 0-2.472656 0-.457031 0-.894531-.074218-1.351563-.074218-.128906 0-.230468.066406-.359374.074218-4.183594-.011718-8.367188.191406-12.527344.613282-4.210938.460937-7.332032 4.125-7.117188 8.355468.210938 4.226563 3.679688 7.558594 7.917969 7.597656.285156 0 .570313-.015624.855469-.046874 4.085937-.414063 8.195312-.59375 12.300781-.539063 13.410156.109375 26.664063 2.828125 39.035156 8l.871094.386719c11.15625 4.832031 21.382813 11.574218 30.214844 19.925781 2.160156 2.035156 4.207031 4.160156 6.175781 6.402344 7.574219 8.390625 13.730469 17.957031 18.226562 28.328125.175782.398437.328126.800781.496094 1.207031 1.066406 2.554687 2.019532 5.160156 2.863282 7.816406.160156.496094.335937.992188.488281 1.488281 3.015625 9.839844 4.550781 20.074219 4.550781 30.367188 0 3.199219-.199219 6.351562-.480469 9.472656-.070312.800782-.160156 1.597656-.246093 2.398438-3.058594 26.621094-16.289063 51.03125-36.921876 68.128906l-.421874.359375c-10.265626 8.445313-22.054688 14.839844-34.730469 18.839844-.359375.113281-.734375.207031-1.09375.3125-2.632813.800781-5.3125 1.480469-8 2.074219l-1.984375.421874c-27.921875 5.546876-56.894532-.605468-80.152344-17.023437-23.253906-16.421875-38.75-41.664063-42.863281-69.832031l-.058594-.335938c-.339844-2.433594-.605469-4.886718-.800781-7.367187-.089844-.621094-.257813-1.230469-.503906-1.808594-.886719-2.921875-3.421876-5.035156-6.453126-5.382813-2.398437-.644531-4.960937-.015624-6.789062 1.667969-1.824219 1.683594-2.664062 4.183594-2.21875 6.625.144531 2.050781.398438 4.058594.648438 6.074219.09375.800781.132812 1.597656.246093 2.34375v.167969c0 .277343.121094.558593.167969.800781.359375 2.398438.800781 4.796875 1.273438 7.199219 0 .175781.144531.304687.183593.464843 2.304688 10.535157 6.039063 20.707032 11.101563 30.230469.054687.222657.121094.441407.203125.65625 2.625 4.929688 5.597656 9.664063 8.894531 14.175781.199219.273438.511719.382813.734375.625 6.21875 8.3125 13.480469 15.796876 21.601563 22.261719.273437.386719.582031.746094.921874 1.074219 4.398438 3.449219 9.035157 6.582031 13.878907 9.375.59375.347656 1.230469.617188 1.894531.800781 8.933594 4.976563 18.46875 8.792969 28.367188 11.351563.234374.128906.476562.242187.722656.34375 5.425781 1.339844 10.9375 2.300781 16.496094 2.871094h.796874c3.832032.386718 7.707032.601562 11.625.601562 6.519532-.042969 13.023438-.621094 19.449219-1.722656h.097657c.46875.003906.9375-.039063 1.398437-.125.695313-.121094 1.375-.304688 2.070313-.441406.890624-.167969 1.761718-.367188 2.640624-.558594 3.03125-.65625 6.019532-1.429688 8.96875-2.3125.464844-.136719.9375-.25 1.390626-.394532.457031-.140624.800781-.214843 1.167968-.335937.183594-.0625.304688-.199219.472656-.269531 10.324219-3.398438 20.136719-8.191406 29.167969-14.242188.113281-.070312.234375-.085937.34375-.160156 3.066407-2.070312 6.007813-4.351562 8.890625-6.710938.183594-.152343.359375-.3125.550782-.464843 1.246093-1.039063 2.519531-2.046875 3.71875-3.125.214843-.253907.410156-.519531.585937-.800781 7.695313-7.035157 14.445313-15.039063 20.085937-23.808594.292969-.308594.558594-.636719.800782-.984375 2.957031-4.734375 5.582031-9.667969 7.855468-14.769531.082032-.175782.058594-.359376.121094-.535157 4.308594-9.8125 7.269532-20.167969 8.800782-30.773437.101562-.261719.191406-.53125.261718-.800782.136719-.96875.199219-1.953124.3125-2.929687.113282-.976563.207032-1.917969.296875-2.878906.289063-3.558594.511719-7.191407.511719-10.824219zm0 0"/><path d="m272 280c-2.121094 0-4.15625-.84375-5.65625-2.34375l-32-32c-1.5-1.5-2.34375-3.535156-2.34375-5.65625v-64c0-4.417969 3.582031-8 8-8s8 3.582031 8 8v60.6875l29.65625 29.65625c2.285156 2.289062 2.972656 5.730469 1.734375 8.71875s-4.15625 4.9375-7.390625 4.9375zm0 0"/><path d="m112 288c-2.773438 0-5.34375-1.4375-6.800781-3.796875-1.457031-2.355469-1.589844-5.300781-.351563-7.777344l16-32c1.972656-3.957031 6.78125-5.5625 10.738282-3.585937l32 16c3.953124 1.976562 5.558593 6.78125 3.582031 10.734375-1.976563 3.957031-6.78125 5.5625-10.734375 3.585937l-24.847656-12.425781-12.386719 24.839844c-1.359375 2.726562-4.152344 4.441406-7.199219 4.425781zm0 0"/></g></svg>