<?xml version="1.0" encoding="utf-8"?>
<!-- Generator: Adobe Illustrator 25.4.1, SVG Export Plug-In . SVG Version: 6.00 Build 0)  -->
<svg version="1.1" id="Ebene_1" xmlns="http://www.w3.org/2000/svg" xmlns:xlink="http://www.w3.org/1999/xlink" x="0px" y="0px"
	 viewBox="0 0 5655 2155.8" style="enable-background:new 0 0 5655 2155.8;" xml:space="preserve">
<style type="text/css">
	.st0{fill:none;}
	.st1{fill:#4E7A73;stroke:#4E7A73;stroke-width:10;stroke-miterlimit:10;}
</style>
<path class="st0" d="M-247.7,0v2155.8h6682.9V0H-247.7z M-125.8,573.6c-6.4,0-6.4-10,0-10C-119.3,563.6-119.3,573.6-125.8,573.6z"/>
<path class="st1" d="M5560.1,1115l-21.4-37.1l21.4-37.1c36.8-63.8,15-145.4-48.8-182.2l-37.1-21.4v-42.8
	c0-73.7-59.7-133.4-133.4-133.4l0,0H5298l-21.4-37c-36.8-63.8-118.4-85.7-182.2-48.8l-37.1,21.3l-37.1-21.4
	c-63.8-36.8-145.4-15-182.2,48.8l-21.4,37.1h-4.4l1.4,1.1c5,4.1-2.1,11.1-7.1,7.1l-10.1-8.2h-22.6c-73.7,0-133.4,59.7-133.4,133.4
	v42.8l-28,16.2c0.5,3.2-2.1,6.9-6.2,5.9l-0.5-0.1c-0.5,0.2-1.1,0.3-1.6,0.3c-0.8,0-1.5,0-2.3,0c-62.8,37.3-83.8,118.1-47.3,181.4
	l0,0l21.4,37.1l-21.4,37.1c-36.8,63.8-15,145.4,48.8,182.2l37.1,21.4v42.8c0,73.7,59.7,133.4,133.4,133.4h42.8l21.4,37.1
	c36.8,63.8,118.4,85.7,182.2,48.8l0,0l37.1-21.4l37,21.4c63.8,36.8,145.4,15,182.2-48.8l21.4-37h42.8c73.7,0,133.4-59.7,133.4-133.4
	l0,0l0,0v-42.8l37-21.4C5575,1260.5,5596.9,1178.9,5560.1,1115L5560.1,1115L5560.1,1115z M5474.2,850.7l31.2,18
	c58.2,33.6,78.2,108.1,44.6,166.3l0,0l-18,31.2l-57.8-100L5474.2,850.7z M5342.3,761l-153.1-88.3h102L5342.3,761z M5100.2,585.2
	c58.2-33.6,132.7-13.7,166.3,44.5l0,0l0,0l18,31.2H5169l-100-57.8L5100.2,585.2z M5145.7,661h-176.8l88.4-51L5145.7,661z
	 M4848.1,629.8c33.6-58.2,108.1-78.2,166.3-44.6l31.2,18l-100,57.8H4830L4848.1,629.8z M4823.3,672.6h102l-153,88.4L4823.3,672.6z
	 M4773.8,672.6h36.1l-57.8,100l-100,57.8v-36l0,0C4652.1,727.2,4706.6,672.7,4773.8,672.6L4773.8,672.6z M4564.6,1035
	c-33.6-58.2-13.7-132.7,44.6-166.3l31.2-18v115.5l-57.8,100L4564.6,1035z M4640.4,1305.1l-31.2-18c-58.2-33.6-78.2-108.1-44.6-166.3
	l18-31.2l57.8,100L4640.4,1305.1z M4640.5,1166.2l-51-88.4l51-88.3V1166.2z M4652.1,874.9V844l88.4-51l-88.4,153v-64
	C4650.3,880,4650.3,876.9,4652.1,874.9L4652.1,874.9z M4773.8,1483.1c-67.2,0-121.7-54.5-121.7-121.7v-36.1l100,57.8l57.8,100
	L4773.8,1483.1z M4652.1,1311.8v-102l88.4,153L4652.1,1311.8z M4772.3,1394.7l153.1,88.4h-102.1L4772.3,1394.7z M5014.4,1570.5
	c-58.2,33.6-132.7,13.7-166.3-44.5l0,0l-18-31.2h115.5l100,57.8L5014.4,1570.5z M4969,1494.7h176.7l-88.4,51L4969,1494.7z
	 M5266.5,1526c-33.6,58.2-108,78.2-166.3,44.6l0,0l-31.2-18l100-57.8h115.5L5266.5,1526z M5291.3,1483.1h-102l153-88.4
	L5291.3,1483.1z M5340.8,1483.1h-36.1l57.8-100l100-57.8v36.1l0,0C5462.4,1428.6,5408,1483.1,5340.8,1483.1z M5462.5,1311.8
	l-88.4,51l88.4-153V1311.8z M5462.5,1186.5l-108.6,188.1l-188.1,108.6h-217.1l-188.1-108.6L4652,1186.5V969.3l59.7-103.5
	c-4.2-1.9-3.5-9.5,2.1-9.5c1,0,2,0.3,2.9,0.9l43.8-75.9l188.1-108.6h217.2l188.1,108.6l108.6,188.1V1186.5z M5374.1,792.9l88.4,51
	V946L5374.1,792.9z M5462.5,830.5l-100-57.8l-57.8-100h36c67.2,0,121.7,54.5,121.8,121.7V830.5z M5474.1,1166.3V989.5l51,88.4
	L5474.1,1166.3z M5562.1,1213.2L5562.1,1213.2c-8.3,31.2-28.7,57.8-56.7,73.9l-31.2,18v-115.5l57.8-100l18,31.2
	C5566.2,1148.7,5570.6,1182,5562.1,1213.2L5562.1,1213.2z"/>
<path d="M449.6,1341.6l68.7-420.9h87l-92.2,499.7H391.3l-59.4-377.9l-59.4,377.9H150.6L59.5,920.7h87l66.6,420.9l64.5-420.9h109.6
	L449.6,1341.6z M841.8,960.6v-39.9H934v499.7h-92.2v-39.9c-8.9,26.6-30,39.9-63.5,39.9h-36.9c-61.4,0-92.2-30-92.2-90.1v-318.5
	c0-60.8,30.7-91.1,92.2-91.1h36.9C811.8,920.7,833,934,841.8,960.6L841.8,960.6z M772.2,1345.6H808c12.3,0,20.8-2.7,25.6-8.2
	c5.5-5.5,8.2-14.7,8.2-27.7v-278.5c0-13-2.7-22.2-8.2-27.7c-4.8-5.5-13.3-8.2-25.6-8.2h-35.8c-12.3,0-20.5,2-24.6,6.1
	c-4.1,3.4-6.2,11.3-6.2,23.5V1316c0,12.3,2,20.5,6.2,24.6C751.7,1344,759.9,1345.7,772.2,1345.6L772.2,1345.6z M1193.1,920.6v74.8
	h-68.6v316.4c0,12.3,1.7,20.5,5.1,24.6c4.1,3.4,12.3,5.1,24.6,5.1h38.9v78.8h-65.5c-64.2,0-96.3-30-96.2-90.1V995.5h-47.1v-74.8
	h47.1v-85h93.2v85L1193.1,920.6z M1531,1011.8v66.6h-91.1v-53.2c0-12.3-2-20.1-6.1-23.5c-4.1-4.1-12.3-6.1-24.6-6.1h-44
	c-12.3,0-20.5,2-24.6,6.1c-4.1,3.4-6.1,11.3-6.1,23.5V1316c0,12.3,2,20.5,6.1,24.6c4.1,3.4,12.3,5.1,24.6,5.1h44
	c12.3,0,20.5-1.7,24.6-5.1c4.1-4.1,6.1-12.3,6.1-24.6v-53.2h91.1v67.6c0,60.1-32.1,90.1-96.3,90.1h-97.3c-63.5,0-95.2-30-95.2-90.1
	v-318.5c0-60.8,31.7-91.1,95.2-91.1h97.3C1498.9,920.7,1531,951.1,1531,1011.8L1531,1011.8z M1763.4,920.6h35.9
	c62.1,0,93.2,30.4,93.2,91.1v408.6h-92.2v-395.2c0-12.3-2-20.1-6.1-23.5c-4.1-4.1-12.3-6.1-24.6-6.1h-35.8
	c-12.3,0-21.2,2.7-26.6,8.2c-4.8,5.5-7.2,14.7-7.2,27.7v389.1h-92.2V735.4h92.2v225.3C1708.8,934,1730,920.7,1763.4,920.6
	L1763.4,920.6z M2329.7,920.6h35.8c61.4,0,92.2,30.4,92.2,91.1v408.6h-92.2v-395.2c0-12.3-2.1-20.1-6.1-23.5
	c-3.4-4.1-11.3-6.1-23.6-6.1h-36.9c-21.9,0-32.8,11.9-32.8,35.8v389.1h-92.2v-395.3c0-12.3-2-20.1-6.1-23.5
	c-4.1-4.1-12.3-6.1-24.6-6.1h-35.8c-12.3,0-21.2,2.7-26.6,8.2c-4.8,5.5-7.2,14.7-7.2,27.7v389.1h-92.2V920.7h92.2v39.9
	c8.9-26.6,30-39.9,63.5-39.9h35.8c43.7,0,72,15.4,85,46.1C2266.2,936.1,2290.1,920.7,2329.7,920.6L2329.7,920.6z M2635.9,920.6
	h100.4c64.2,0,96.3,30.4,96.2,91.1v187.4h-201.7V1318c0,11.6,2,19.5,6.1,23.6s12.3,6.1,24.6,6.1h47.1c12.3,0,20.5-2,24.6-6.1
	s6.1-12.3,6.1-24.6v-41h90.1v54.3c0,60.1-31.7,90.1-95.2,90.1h-98.3c-63.5,0-95.2-30-95.2-90.1v-318.4
	C2540.6,951.1,2572.4,920.7,2635.9,920.6L2635.9,920.6z M2630.8,1023v108.6h110.6v-108.5c0-11.6-2.1-19.5-6.1-23.5
	c-3.4-4.1-11.3-6.1-23.6-6.1h-50.2c-12.3,0-20.5,2-24.6,6.1C2632.8,1003.6,2630.8,1011.5,2630.8,1023L2630.8,1023z M3194,1011.8
	v66.6h-91.1v-53.2c0-12.3-2-20.1-6.1-23.5c-4.1-4.1-12.3-6.1-24.6-6.1h-44c-12.3,0-20.5,2-24.6,6.1c-4.1,3.4-6.1,11.3-6.1,23.5V1316
	c0,12.3,2,20.5,6.1,24.6c4.1,3.4,12.3,5.1,24.6,5.1h44c12.3,0,20.5-1.7,24.6-5.1c4.1-4.1,6.1-12.3,6.1-24.6v-53.2h91.1v67.6
	c0,60.1-32.1,90.1-96.2,90.1h-97.3c-63.5,0-95.2-30-95.2-90.1v-318.5c0-60.8,31.7-91.1,95.2-91.1h97.3
	C3161.9,920.7,3194,951.1,3194,1011.8L3194,1011.8z M3443.8,919.6h20.5v79.9h-36.9c-43,0-64.5,25.3-64.5,75.8v345.1h-92.2V920.7
	h92.2v61.4c5.1-17.1,15-32.4,28.7-44C3405.9,925.8,3423.3,919.7,3443.8,919.6L3443.8,919.6z M3700.8,960.6v-39.9h92.2v499.7h-92.2
	v-39.9c-8.9,26.6-30,39.9-63.5,39.9h-36.9c-61.4,0-92.2-30-92.2-90.1v-318.5c0-60.8,30.7-91.1,92.2-91.1h36.8
	C3670.8,920.7,3691.9,934,3700.8,960.6L3700.8,960.6z M3631.2,1345.6h35.8c12.3,0,20.8-2.7,25.6-8.2c5.5-5.5,8.2-14.7,8.2-27.7
	v-278.5c0-13-2.7-22.2-8.2-27.7c-4.8-5.5-13.3-8.2-25.6-8.2h-35.8c-12.3,0-20.5,2-24.6,6.1c-4.1,3.4-6.1,11.3-6.1,23.5V1316
	c0,12.3,2,20.5,6.1,24.6C3610.7,1344,3618.9,1345.7,3631.2,1345.6L3631.2,1345.6z M4060.3,735.4v77.8h-43c-12.3,0-20.5,2-24.6,6.2
	c-4.1,3.4-6.1,11.3-6.1,23.5v77.8h73.7v74.8h-73.7v425h-92.2v-425h-50.2v-74.8h50.2v-95.2c0-60.1,31.7-90.1,95.2-90.1H4060.3z
	 M4279.4,920.7v74.8h-68.6v316.4c0,12.3,1.7,20.5,5.1,24.6c4.1,3.4,12.3,5.1,24.6,5.1h38.9v78.8h-65.5c-64.2,0-96.3-30-96.3-90.1
	V995.5h-47.1v-74.8h47.1v-85h93.2v85H4279.4z"/>
</svg>
