<?xml version="1.0" encoding="utf-8"?>
<!-- Generator: Adobe Illustrator 25.4.1, SVG Export Plug-In . SVG Version: 6.00 Build 0)  -->
<svg version="1.1" id="Ebene_1" xmlns="http://www.w3.org/2000/svg" xmlns:xlink="http://www.w3.org/1999/xlink" x="0px" y="0px"
	 viewBox="0 0 5639.2 2155.8" style="enable-background:new 0 0 5639.2 2155.8;" xml:space="preserve">
<style type="text/css">
	.st0{fill:none;}
	.st1{fill:#ADEFD1;stroke:#ADEFD1;stroke-width:10;stroke-miterlimit:10;}
	.st2{fill:#FFFFFF;}
</style>
<path class="st0" d="M-239.5,0v2155.8h6237.7V0H-239.5z M-125.7,573.6c-6,0-6-10,0-10C-119.7,563.6-119.7,573.6-125.7,573.6z"/>
<path class="st1" d="M5546.9,1077.9l21.4-37.1c36.8-63.8,15-145.4-48.8-182.2l-37.1-21.4v-42.8c0-73.7-59.7-133.4-133.4-133.4l0,0
	h-42.8l-21.4-37c-36.8-63.8-118.4-85.7-182.2-48.8l-37.1,21.4l-37.1-21.4c-63.8-36.8-145.4-15-182.2,48.8l-21.4,37.1H4782
	c-73.7,0-133.4,59.7-133.4,133.4v42.8l-37.1,21.4c-63.8,36.8-85.7,118.4-48.8,182.2l0,0l21.4,37.1l-21.4,37.1
	c-36.8,63.8-15,145.4,48.8,182.2l37.1,21.4v42.8c0,73.7,59.7,133.4,133.4,133.4h42.8l21.4,37.1c36.8,63.8,118.4,85.7,182.2,48.8l0,0
	l37.1-21.4l37,21.4c63.8,36.8,145.4,15,182.2-48.8l21.4-37h42.8c73.7,0,133.4-59.7,133.4-133.4l0,0v-42.8l37-21.4
	c63.8-36.8,85.7-118.4,48.9-182.2l0,0L5546.9,1077.9z M5513.6,868.7c58.2,33.6,78.2,108.1,44.6,166.3l0,0l-18,31.2l-57.8-100V850.7
	L5513.6,868.7z M5362.1,1374.5L5174,1483.1h-217.2l-188.1-108.6l-108.6-188.1V969.3l108.6-188.1l188.1-108.6H5174l188.1,108.6
	l108.6,188.1v217.2L5362.1,1374.5z M5470.7,1209.8v102l-88.4,51L5470.7,1209.8z M5350.5,1394.7l-51,88.4h-102L5350.5,1394.7z
	 M5153.9,1494.7l-88.4,51l-88.4-51H5153.9z M4933.6,1483.1h-102.1l-51-88.4L4933.6,1483.1z M4748.7,1362.8l-88.4-51v-102
	L4748.7,1362.8z M4648.7,1166.2l-51-88.4l51-88.3V1166.2z M4660.3,946V844l88.4-51L4660.3,946z M4780.5,761l51-88.4h102L4780.5,761z
	 M4977.1,661l88.4-51l88.4,51H4977.1z M5197.4,672.7h102l51.1,88.3L5197.4,672.7z M5382.3,792.9l88.4,51V946L5382.3,792.9z
	 M5482.3,989.5l51,88.4l-51,88.4V989.5z M5349,672.7c67.2,0,121.7,54.5,121.7,121.7v36.1l-100-57.8l-57.8-100H5349z M5108.4,585.2
	c58.2-33.6,132.7-13.7,166.3,44.6l0,0l18,31.2h-115.5l-100-57.8L5108.4,585.2z M4856.3,629.8c33.6-58.2,108.1-78.2,166.3-44.6
	l31.2,18l-100,57.8h-115.6L4856.3,629.8z M4660.3,794.4c0-67.2,54.5-121.7,121.7-121.7l0,0h36l-57.8,100l-100,57.8L4660.3,794.4
	L4660.3,794.4z M4572.8,1035c-33.6-58.2-13.7-132.7,44.6-166.3l31.2-18v115.5l-57.8,100L4572.8,1035z M4617.4,1287.1
	c-58.2-33.6-78.2-108.1-44.6-166.3l18-31.2l57.8,100v115.5L4617.4,1287.1z M4782,1483.1c-67.2,0-121.7-54.5-121.7-121.7l0,0v-36.1
	l100,57.8l57.8,100L4782,1483.1z M5022.6,1570.5c-58.2,33.6-132.7,13.7-166.3-44.5l0,0l-18-31.2h115.5l100,57.8L5022.6,1570.5z
	 M5274.7,1526c-33.6,58.2-108,78.2-166.3,44.6l0,0l-31.2-18l100-57.8h115.5L5274.7,1526z M5470.7,1361.4
	c0,67.2-54.5,121.7-121.7,121.7l0,0h-36.1l57.8-100l100-57.8L5470.7,1361.4L5470.7,1361.4z M5570.3,1213.1
	c-8.3,31.2-28.7,57.8-56.7,73.9l-31.2,18v-115.5l57.8-100l18,31.2C5574.3,1148.7,5578.7,1182,5570.3,1213.1L5570.3,1213.1z"/>
<path class="st2" d="M457.8,1341.6l68.7-420.9h87l-92.2,499.7H399.5l-59.4-377.9l-59.4,377.9H158.8L67.7,920.7h87l66.6,420.9
	l64.5-420.9h109.6L457.8,1341.6z M850,960.6v-39.9h92.2v499.7H850v-39.9c-8.9,26.6-30,39.9-63.5,39.9h-36.9
	c-61.4,0-92.2-30-92.2-90.1v-318.5c0-60.8,30.7-91.1,92.2-91.1h36.9C820,920.7,841.2,934,850,960.6L850,960.6z M780.4,1345.6h35.8
	c12.3,0,20.8-2.7,25.6-8.2c5.5-5.5,8.2-14.7,8.2-27.7v-278.5c0-13-2.7-22.2-8.2-27.7c-4.8-5.5-13.3-8.2-25.6-8.2h-35.8
	c-12.3,0-20.5,2-24.6,6.1c-4.1,3.4-6.2,11.3-6.2,23.5V1316c0,12.3,2,20.5,6.2,24.6C759.9,1344,768.1,1345.7,780.4,1345.6
	L780.4,1345.6z M1201.3,920.6v74.8h-68.6v316.4c0,12.3,1.7,20.5,5.1,24.6c4.1,3.4,12.3,5.1,24.6,5.1h38.9v78.8h-65.5
	c-64.2,0-96.3-30-96.2-90.1V995.5h-47.1v-74.8h47.1v-85h93.2v85L1201.3,920.6z M1539.2,1011.8v66.6h-91.1v-53.2
	c0-12.3-2-20.1-6.1-23.5c-4.1-4.1-12.3-6.1-24.6-6.1h-44c-12.3,0-20.5,2-24.6,6.1c-4.1,3.4-6.1,11.3-6.1,23.5V1316
	c0,12.3,2,20.5,6.1,24.6c4.1,3.4,12.3,5.1,24.6,5.1h44c12.3,0,20.5-1.7,24.6-5.1c4.1-4.1,6.1-12.3,6.1-24.6v-53.2h91.1v67.6
	c0,60.1-32.1,90.1-96.3,90.1h-97.3c-63.5,0-95.2-30-95.2-90.1v-318.5c0-60.8,31.7-91.1,95.2-91.1h97.3
	C1507.1,920.7,1539.2,951.1,1539.2,1011.8L1539.2,1011.8z M1771.6,920.6h35.9c62.1,0,93.2,30.4,93.2,91.1v408.6h-92.2v-395.2
	c0-12.3-2-20.1-6.1-23.5c-4.1-4.1-12.3-6.1-24.6-6.1H1742c-12.3,0-21.2,2.7-26.6,8.2c-4.8,5.5-7.2,14.7-7.2,27.7v389.1H1616V735.4
	h92.2v225.3C1717,934,1738.2,920.7,1771.6,920.6L1771.6,920.6z M2337.9,920.6h35.8c61.4,0,92.2,30.4,92.2,91.1v408.6h-92.2v-395.2
	c0-12.3-2.1-20.1-6.1-23.5c-3.4-4.1-11.3-6.1-23.6-6.1h-36.9c-21.9,0-32.8,11.9-32.8,35.8v389.1h-92.2v-395.3
	c0-12.3-2-20.1-6.1-23.5c-4.1-4.1-12.3-6.1-24.6-6.1h-35.8c-12.3,0-21.2,2.7-26.6,8.2c-4.8,5.5-7.2,14.7-7.2,27.7v389.1h-92.2V920.7
	h92.2v39.9c8.9-26.6,30-39.9,63.5-39.9h35.8c43.7,0,72,15.4,85,46.1C2274.4,936.1,2298.3,920.7,2337.9,920.6L2337.9,920.6z
	 M2644.1,920.6h100.4c64.2,0,96.3,30.4,96.2,91.1v187.4H2639V1318c0,11.6,2,19.5,6.1,23.6s12.3,6.1,24.6,6.1h47.1
	c12.3,0,20.5-2,24.6-6.1s6.1-12.3,6.1-24.6v-41h90.1v54.3c0,60.1-31.7,90.1-95.2,90.1h-98.3c-63.5,0-95.2-30-95.2-90.1v-318.4
	C2548.8,951.1,2580.6,920.7,2644.1,920.6L2644.1,920.6z M2639,1023v108.6h110.6v-108.5c0-11.6-2.1-19.5-6.1-23.5
	c-3.4-4.1-11.3-6.1-23.6-6.1h-50.2c-12.3,0-20.5,2-24.6,6.1C2641,1003.6,2639,1011.5,2639,1023L2639,1023z M3202.2,1011.8v66.6
	h-91.1v-53.2c0-12.3-2-20.1-6.1-23.5c-4.1-4.1-12.3-6.1-24.6-6.1h-44c-12.3,0-20.5,2-24.6,6.1c-4.1,3.4-6.1,11.3-6.1,23.5V1316
	c0,12.3,2,20.5,6.1,24.6c4.1,3.4,12.3,5.1,24.6,5.1h44c12.3,0,20.5-1.7,24.6-5.1c4.1-4.1,6.1-12.3,6.1-24.6v-53.2h91.1v67.6
	c0,60.1-32.1,90.1-96.2,90.1h-97.3c-63.5,0-95.2-30-95.2-90.1v-318.5c0-60.8,31.7-91.1,95.2-91.1h97.3
	C3170.1,920.7,3202.2,951.1,3202.2,1011.8L3202.2,1011.8z M3452,919.6h20.5v79.9h-36.9c-43,0-64.5,25.3-64.5,75.8v345.1h-92.2V920.7
	h92.2v61.4c5.1-17.1,15-32.4,28.7-44C3414.1,925.8,3431.5,919.7,3452,919.6L3452,919.6z M3709,960.6v-39.9h92.2v499.7H3709v-39.9
	c-8.9,26.6-30,39.9-63.5,39.9h-36.9c-61.4,0-92.2-30-92.2-90.1v-318.5c0-60.8,30.7-91.1,92.2-91.1h36.9
	C3679,920.7,3700.2,934,3709,960.6L3709,960.6z M3639.4,1345.6h35.8c12.3,0,20.8-2.7,25.6-8.2c5.5-5.5,8.2-14.7,8.2-27.7v-278.5
	c0-13-2.7-22.2-8.2-27.7c-4.8-5.5-13.3-8.2-25.6-8.2h-35.8c-12.3,0-20.5,2-24.6,6.1c-4.1,3.4-6.1,11.3-6.1,23.5V1316
	c0,12.3,2,20.5,6.1,24.6C3618.9,1344,3627.1,1345.7,3639.4,1345.6L3639.4,1345.6z M4068.5,735.4v77.8h-43c-12.3,0-20.5,2-24.6,6.2
	c-4.1,3.4-6.1,11.3-6.1,23.5v77.8h73.7v74.8h-73.7v425h-92.2v-425h-50.2v-74.8h50.2v-95.2c0-60.1,31.7-90.1,95.2-90.1H4068.5z
	 M4287.6,920.7v74.8H4219v316.4c0,12.3,1.7,20.5,5.1,24.6c4.1,3.4,12.3,5.1,24.6,5.1h38.9v78.8h-65.5c-64.2,0-96.3-30-96.3-90.1
	V995.5h-47.1v-74.8h47.1v-85h93.2v85H4287.6z"/>
</svg>
