<svg width="700" height="115" xmlns="http://www.w3.org/2000/svg">
 <!-- Created with Method Draw - http://github.com/duopixel/Method-Draw/ -->
 <g id="Layer_1">
  <title>Layer 1</title>
  <text fill="#FFFFFF" stroke="#000" stroke-width="0" stroke-dasharray="null" stroke-opacity="null" fill-opacity="null" opacity="undefined" x="72.5" y="107.25" id="svg_1" font-size="120" font-family="'Rounded Mplus 1c Black'" text-anchor="start" xml:space="preserve" font-weight="normal" font-style="normal">nsta</text>
  <text fill="#529D94" stroke="#000" stroke-width="0" stroke-dasharray="null" stroke-opacity="null" opacity="undefined" x="272" y="106.25" id="svg_2" font-size="120" font-family="'Rounded Mplus 1c ExtraBold'" text-anchor="start" xml:space="preserve" font-weight="normal" font-style="normal">suche</text>
  <path fill="#529D94" stroke="#000" stroke-width="0" stroke-dasharray="null" stroke-opacity="null" fill-opacity="null" opacity="NaN" d="m22.5,-5c-18,28 -18,28 -18,28" id="svg_11"/>
  <g id="svg_14">
   <g id="svg_7" fill="#FFFFFF" transform="matrix(0.0171444, 0, 0, -0.0172073, -0.744168, 84.8335)">
    <path id="svg_4" d="m2118.13774,4713.72934c-60,-8 -130,-19 -155,-25c-25,-6 -72,-18 -105,-26c-571,-143 -1068,-577 -1298,-1134c-241,-585 -178,-1245 171,-1780c219,-335 517,-585 895,-746c42,-18 80,-33 82,-33c3,0 41,-12 85,-25c44,-14 90,-28 102,-30c13,-3 32,-7 43,-9c19,-4 54,-10 124,-22c19,-3 38,-8 43,-11c4,-3 8,-52 8,-110l0,-104l-38,0c-101,0 -206,-62 -243,-145c-26,-55 -24,-138 2,-193c23,-47 83,-97 129,-107l29,-6l3,-305l3,-305l24,-18c32,-25 79,-21 102,8c18,21 19,46 19,317l0,294l195,0l195,0l0,-736c0,-524 -3,-742 -11,-757c-49,-96 -165,-134 -269,-89c-103,45 -109,68 -110,428c0,268 -1,294 -18,315c-27,33 -78,30 -109,-6l-24,-28l3,-316c3,-299 4,-318 25,-363c30,-66 96,-133 162,-165c50,-25 66,-28 161,-28c91,0 112,3 155,25c72,35 138,105 164,173c21,57 21,66 21,801l0,744l56,27c170,83 177,318 11,400c-62,30 -75,33 -134,34l-43,1l0,105c0,76 4,107 13,109c6,2 66,14 131,26c237,44 497,150 696,283c141,94 200,150 200,190c0,8 -9,26 -21,41c-32,41 -75,36 -141,-17c-249,-201 -597,-343 -915,-374c-136,-13 -425,-6 -475,12c-13,4 -44,11 -108,21c-116,19 -490,175 -550,229c-9,8 -20,15 -23,15c-13,0 -162,115 -227,174c-265,245 -445,541 -531,875c-55,215 -71,440 -45,652c68,542 352,995 816,1299c200,131 487,234 738,264c108,13 359,15 422,2c14,-2 47,-7 74,-11c28,-3 86,-15 130,-26c126,-30 145,-37 251,-79c400,-159 736,-469 930,-855c108,-217 163,-412 186,-671c37,-412 -99,-868 -361,-1210c-33,-43 -64,-90 -67,-103c-14,-55 50,-103 103,-79c27,12 129,145 192,249c211,346 312,757 283,1142c-42,548 -282,1016 -696,1362c-188,157 -486,314 -705,371c-93,24 -185,44 -226,49c-27,4 -60,9 -74,11c-62,12 -354,11 -455,-1zm305,-3956l0,-99l-80,0l-80,0l0,103l0,102l80,-3l80,-4l0,-99zm271,-278c32,-32 35,-47 18,-85c-21,-44 -44,-47 -388,-44l-323,3l-19,24c-26,32 -24,77 6,106l24,25l326,0l327,0l29,-29z"/>
    <path id="svg_5" d="m2169.13774,4397.72934c-348,-46 -654,-185 -905,-412c-286,-258 -473,-618 -521,-1000c-17,-136 -8,-394 19,-515c48,-216 145,-437 269,-612c83,-118 269,-306 382,-386c195,-138 392,-227 611,-274c136,-29 219,-36 374,-34c116,3 180,10 321,38c53,11 172,50 261,87c492,204 853,644 965,1177c20,92 23,136 22,322c0,183 -3,230 -22,316c-40,187 -135,421 -223,552c-78,116 -134,184 -160,198c-26,13 -32,13 -59,-1c-34,-17 -53,-55 -43,-82c3,-10 25,-43 48,-73c210,-273 315,-579 315,-915c0,-400 -147,-753 -429,-1035c-235,-234 -463,-352 -815,-421c-99,-19 -371,-15 -471,6c-11,3 -31,7 -45,9c-124,20 -347,110 -476,192c-160,102 -329,262 -434,412c-118,167 -202,359 -246,562c-29,133 -27,439 4,579c63,281 187,513 382,715c228,236 496,377 825,435c86,16 143,19 265,16c164,-4 177,-5 310,-36c175,-41 338,-113 489,-216c82,-57 98,-64 126,-59c42,8 59,29 59,73c0,39 -13,53 -109,117c-210,141 -467,236 -715,265c-99,11 -288,11 -374,0z"/>
    <path id="svg_6" d="m2298.13774,4073.72934c-24,-23 -25,-29 -25,-155c0,-71 -3,-130 -7,-130c-36,0 -153,-25 -218,-46c-366,-120 -634,-429 -689,-799l-12,-80l-129,-5c-72,-3 -137,-9 -146,-13c-17,-8 -39,-48 -39,-71c0,-7 9,-25 21,-40c20,-26 22,-26 155,-26c99,0 136,-3 138,-12c2,-7 9,-46 15,-86c35,-225 188,-473 383,-622c130,-98 306,-178 430,-195c24,-3 55,-8 70,-11l26,-5l4,-134c3,-114 6,-136 22,-154c25,-27 79,-28 106,-1c18,18 20,33 20,155l0,134l38,6c325,49 576,210 746,479c69,108 126,265 141,389l7,57l133,0c114,0 135,2 153,19c30,25 29,80 -1,109c-20,19 -36,22 -152,24l-129,3l-13,75c-43,256 -173,476 -378,639c-133,107 -300,177 -489,205c-21,4 -42,9 -47,12c-5,3 -9,63 -9,133c0,120 -1,129 -23,149c-31,29 -72,28 -102,-3zm284,-465c282,-81 494,-286 587,-570c26,-79 28,-96 29,-250c0,-154 -2,-171 -29,-255c-28,-91 -90,-215 -107,-215c-5,0 -9,43 -9,95c0,75 -4,104 -19,134c-22,42 -80,97 -118,112c-21,8 -160,43 -246,63l-27,6l34,49c52,76 69,156 64,297c-6,154 -27,212 -107,293c-117,119 -285,153 -433,88c-75,-34 -160,-117 -195,-192c-25,-55 -28,-72 -31,-192c-4,-153 8,-212 62,-291l34,-50l-132,-33c-147,-36 -168,-44 -213,-88c-54,-52 -66,-85 -71,-205c-6,-128 -7,-128 -77,19c-115,241 -111,504 10,745c62,123 128,204 235,287c114,88 225,140 360,169c96,20 304,12 399,-16zm-151,-282c57,-14 122,-76 147,-141c14,-36 16,-68 14,-155c-4,-100 -7,-113 -34,-158c-62,-100 -186,-140 -292,-94c-57,24 -91,56 -122,115c-18,34 -21,57 -21,152c0,135 13,173 75,228c70,63 136,78 233,53zm126,-729c21,-6 46,-12 55,-14c134,-30 256,-66 271,-80c19,-17 20,-32 20,-196l0,-178l-44,-34c-25,-19 -82,-53 -128,-76c-253,-127 -569,-116 -811,27c-125,74 -117,57 -117,247c0,167 7,207 39,221c9,3 90,26 181,49c161,42 169,43 330,44c91,1 182,-4 204,-10z"/>
   </g>
  </g>
 </g>
</svg>